<svg width="32" height="32" viewBox="0 0 32 32" fill="none" xmlns="http://www.w3.org/2000/svg">
<path d="M0 16C0 7.16344 7.16344 0 16 0C24.8366 0 32 7.16344 32 16C32 24.8366 24.8366 32 16 32C7.16344 32 0 24.8366 0 16Z" fill="white" fill-opacity="0.24"/>
<path fill-rule="evenodd" clip-rule="evenodd" d="M18.9428 10.3905C19.4635 10.9112 19.4635 11.7554 18.9428 12.2761L15.219 16L18.9428 19.7239C19.4635 20.2446 19.4635 21.0888 18.9428 21.6095C18.4221 22.1302 17.5779 22.1302 17.0572 21.6095L12.3905 16.9428C11.8698 16.4221 11.8698 15.5779 12.3905 15.0572L17.0572 10.3905C17.5779 9.86983 18.4221 9.86983 18.9428 10.3905Z" fill="#FCFCFD"/>
</svg>
